HIERARCHY
ROOT Hips
{
	OFFSET 20.463800 7.826293 43.778099
	CHANNELS 6 Xposition Yposition Zposition Zrotation Xrotation Yrotation
	JOINT Chest
	{
		OFFSET -0.076000 1.394599 8.347801
		CHANNELS 6 Xposition Yposition Zposition Zrotation Xrotation Yrotation
		JOINT Chest2
		{
			OFFSET 0.000000 0.000000 3.321602
			CHANNELS 6 Xposition Yposition Zposition Zrotation Xrotation Yrotation
			JOINT Neck
			{
				OFFSET 0.000000 -0.000002 7.732101
				CHANNELS 6 Xposition Yposition Zposition Zrotation Xrotation Yrotation
				JOINT Head
				{
					OFFSET 0.000000 0.000000 2.173897
					CHANNELS 6 Xposition Yposition Zposition Zrotation Xrotation Yrotation
					End Site
					{
						OFFSET 0.000000 -0.000002 10.080803
					}
				}
			}
			JOINT LeftCollar
			{
				OFFSET 2.718100 -2.003101 4.670502
				CHANNELS 6 Xposition Yposition Zposition Zrotation Xrotation Yrotation
				JOINT LeftShoulder
				{
					OFFSET 4.147100 0.000000 0.000000
					CHANNELS 6 Xposition Yposition Zposition Zrotation Xrotation Yrotation
					JOINT LeftElbow
					{
						OFFSET 0.000000 0.000002 -10.254799
						CHANNELS 6 Xposition Yposition Zposition Zrotation Xrotation Yrotation
						JOINT LeftWrist
						{
							OFFSET 0.000000 0.000002 -12.664398
							CHANNELS 6 Xposition Yposition Zposition Zrotation Xrotation Yrotation
							End Site
							{
								OFFSET 0.000000 0.000000 -2.173901
							}
						}
					}
				}
			}
			JOINT RightCollar
			{
				OFFSET -2.489500 -2.085301 4.979698
				CHANNELS 6 Xposition Yposition Zposition Zrotation Xrotation Yrotation
				JOINT RightShoulder
				{
					OFFSET -4.160400 0.000000 0.000000
					CHANNELS 6 Xposition Yposition Zposition Zrotation Xrotation Yrotation
					JOINT RightElbow
					{
						OFFSET 0.000000 0.000002 -10.253998
						CHANNELS 6 Xposition Yposition Zposition Zrotation Xrotation Yrotation
						JOINT RightWrist
						{
							OFFSET 0.000000 0.000002 -12.768700
							CHANNELS 6 Xposition Yposition Zposition Zrotation Xrotation Yrotation
							End Site
							{
								OFFSET 0.000000 0.000000 -2.173901
							}
						}
					}
				}
			}
		}
	}
	JOINT LeftHip
	{
		OFFSET 2.212400 -0.073599 -2.641499
		CHANNELS 6 Xposition Yposition Zposition Zrotation Xrotation Yrotation
		JOINT LeftKnee
		{
			OFFSET 0.000000 0.000003 -17.950598
			CHANNELS 6 Xposition Yposition Zposition Zrotation Xrotation Yrotation
			JOINT LeftAnkle
			{
				OFFSET 0.000000 0.000003 -19.053900
				CHANNELS 6 Xposition Yposition Zposition Zrotation Xrotation Yrotation
				End Site
				{
					OFFSET 0.000000 -8.430400 -0.000001
				}
			}
		}
	}
	JOINT RightHip
	{
		OFFSET -2.162800 -0.306099 -2.581299
		CHANNELS 6 Xposition Yposition Zposition Zrotation Xrotation Yrotation
		JOINT RightKnee
		{
			OFFSET 0.000000 0.000003 -18.327099
			CHANNELS 6 Xposition Yposition Zposition Zrotation Xrotation Yrotation
			JOINT RightAnkle
			{
				OFFSET 0.000000 0.000003 -18.423401
				CHANNELS 6 Xposition Yposition Zposition Zrotation Xrotation Yrotation
				End Site
				{
					OFFSET 0.000000 -8.995800 -0.000002
				}
			}
		}
	}
}
MOTION
Frames: 8
Frame Time: 0.033334
-44.099304 32.814892 44.095306 -3.884934 3.393408 5.277783 -0.076005 1.394592 8.347795 3.258032 -1.010875 4.245829 0.000004 -0.000001 3.321602 -10.196546 -3.538182 -0.920272 0.000003 -0.000005 7.732095 57.086779 4.670669 -6.212926 0.000000 -0.000006 2.173900 7.393154 3.770997 9.769908 2.718112 -2.003100 4.670504 1.714237 0.199493 3.676074 4.147103 0.000002 -0.000001 -22.303624 -13.135202 -114.598867 0.000007 0.000005 -10.254795 60.487390 -10.427821 3.789109 0.000000 0.000002 -12.664396 255.045411 180.891290 -129.982817 -2.489497 -2.085304 4.979697 -5.905093 -0.748149 22.344460 -4.160392 -0.000001 0.000012 33.725292 -30.145224 122.057188 -0.000006 0.000003 -10.254015 -56.206539 -5.737137 -6.453365 -0.000006 -0.000002 -12.768703 -68.014914 -16.986399 324.186623 2.212397 -0.073602 -2.641507 164.169348 -1.602129 70.144984 -0.000001 -0.000000 -17.950609 -188.886149 7.221178 100.223450 -0.000001 0.000007 -19.053909 55.225245 -7.187847 53.571578 -2.162802 -0.306100 -2.581308 -3.938065 -11.349255 -0.068364 -0.000007 -0.000005 -18.327097 -26.929103 35.573934 -3.492632 -0.000002 0.000002 -18.423401 16.126524 8.329150 6.124172 
-44.516891 32.955692 43.998508 -4.514099 3.669459 5.307124 -0.075997 1.394597 8.347793 3.913721 -1.767745 4.103594 -0.000003 -0.000005 3.321601 -11.341771 -3.652336 -1.040171 0.000001 -0.000003 7.732094 59.804303 2.249180 -4.524453 0.000002 0.000002 2.173888 8.428228 3.232820 9.746946 2.718102 -2.003101 4.670504 -0.034334 1.752454 4.411787 4.147106 0.000003 -0.000000 -14.504050 -11.596690 -112.837259 -0.000004 0.000005 -10.254792 74.553222 -6.644811 3.731387 -0.000001 0.000004 -12.664398 245.253269 180.195048 -139.998142 -2.489500 -2.085301 4.979688 -4.678454 1.138985 21.646195 -4.160397 -0.000001 -0.000005 23.869273 -28.474562 117.555929 -0.000002 0.000003 -10.254006 -48.683365 -5.559409 -5.270213 0.000001 -0.000000 -12.768700 -74.773728 -15.538354 337.052787 2.212407 -0.073600 -2.641501 163.997978 -1.348443 71.266003 -0.000003 0.000001 -17.950607 -189.573075 5.327806 103.876092 0.000004 0.000001 -19.053904 56.404938 -7.956604 55.941493 -2.162797 -0.306099 -2.581305 -5.232046 -12.477177 -0.697777 -0.000003 -0.000006 -18.327089 -25.497725 37.023307 -3.334311 -0.000008 0.000005 -18.423399 15.660809 7.999747 8.172572 
-44.968193 33.140194 43.989109 -4.328199 4.372181 5.211047 -0.076000 1.394598 8.347799 3.661112 -2.424791 4.380660 -0.000001 0.000005 3.321595 -11.724679 -3.631896 -1.104255 0.000002 0.000000 7.732098 62.908808 -0.560203 -3.913835 0.000002 -0.000000 2.173901 8.739030 3.416060 10.883468 2.718105 -2.003099 4.670501 1.852818 -0.205375 3.382158 4.147093 0.000000 0.000009 -12.988541 -10.471888 -109.412951 0.000001 0.000005 -10.254789 70.097740 -4.919055 2.560567 -0.000002 0.000009 -12.664396 252.178534 179.688289 -143.640886 -2.489500 -2.085299 4.979690 -3.504841 1.585863 21.117625 -4.160406 -0.000004 0.000008 15.175463 -26.781109 112.213267 0.000001 0.000004 -10.254004 -45.055616 -4.223433 -3.145014 -0.000003 0.000003 -12.768705 -67.763905 -17.130017 330.062335 2.212401 -0.073601 -2.641499 162.558939 -1.416046 72.052779 0.000004 0.000002 -17.950600 -189.503380 4.218397 106.574167 0.000006 0.000007 -19.053902 56.548717 -7.642781 55.984936 -2.162798 -0.306101 -2.581300 -6.686287 -13.700946 -1.266127 -0.000008 -0.000001 -18.327099 -24.590394 37.907014 -3.579725 -0.000005 -0.000002 -18.423399 15.697043 7.483629 7.234321 
-45.321495 33.290092 43.940010 -5.876445 3.758093 4.875064 -0.076001 1.394592 8.347800 5.378080 -2.695484 4.275466 -0.000003 -0.000004 3.321602 -10.879410 -3.228948 -0.896832 0.000005 -0.000003 7.732098 62.391435 -0.792080 -2.984717 0.000000 0.000006 2.173887 8.598628 2.172674 10.902810 2.718106 -2.003103 4.670497 -0.597053 1.879125 4.134594 4.147110 0.000001 -0.000001 -9.443651 -10.622653 -108.236908 0.000004 0.000006 -10.254793 72.131340 -2.887656 1.302293 -0.000001 0.000010 -12.664392 250.265972 178.867915 -143.670966 -2.489493 -2.085306 4.979689 -3.926922 0.287541 21.186238 -4.160403 -0.000001 0.000006 11.711913 -22.830739 109.050834 0.000004 0.000002 -10.253994 -47.425442 -2.832494 -2.189466 -0.000008 0.000004 -12.768694 -66.332113 -16.310780 331.850724 2.212400 -0.073606 -2.641500 163.163083 -1.737291 72.169479 -0.000005 0.000002 -17.950611 -190.467939 3.867967 109.086795 0.000003 0.000008 -19.053902 56.290301 -6.982104 56.306741 -2.162803 -0.306107 -2.581297 -5.134998 -13.277978 -0.922343 0.000000 -0.000001 -18.327099 -24.237269 37.971358 -4.624427 -0.000004 0.000001 -18.423401 14.829580 7.674481 8.873361 
-45.636200 33.465591 43.870811 -6.283011 3.284093 4.300293 -0.075998 1.394601 8.347799 5.215407 -2.719280 4.697616 -0.000006 -0.000001 3.321605 -10.161493 -3.061630 -0.810780 0.000003 -0.000003 7.732102 63.433087 -1.784439 -2.920955 0.000003 0.000006 2.173903 9.101014 1.894930 11.227249 2.718103 -2.003103 4.670506 -0.827736 1.707785 4.598663 4.147099 -0.000002 0.000003 -7.337107 -8.612431 -106.534449 0.000000 0.000002 -10.254792 72.521125 -2.594374 0.846937 0.000001 -0.000004 -12.664398 250.711027 178.456956 -145.114554 -2.489492 -2.085301 4.979700 -3.335663 0.478577 21.631465 -4.160398 -0.000000 0.000013 6.529048 -20.104086 104.885826 -0.000012 0.000004 -10.254002 -56.629276 -2.995757 -4.191834 -0.000004 -0.000000 -12.768702 -63.995546 -16.125879 332.809464 2.212408 -0.073603 -2.641501 162.122736 -3.316873 71.880740 -0.000002 0.000001 -17.950613 -189.850709 4.004652 110.948200 0.000003 0.000006 -19.053905 56.284126 -7.040885 56.883639 -2.162798 -0.306097 -2.581306 -5.840293 -12.904743 -0.734320 -0.000005 -0.000006 -18.327101 -22.976618 38.163521 -5.061221 0.000008 0.000001 -18.423405 15.920473 6.902515 6.113608 
-45.941902 33.651291 43.814713 -6.961563 3.484348 4.456511 -0.076007 1.394599 8.347793 5.922591 -3.620244 4.334467 0.000009 0.000004 3.321607 -10.239424 -2.825295 -0.796212 0.000005 -0.000001 7.732105 63.870888 -2.116491 -2.406538 -0.000001 0.000000 2.173886 9.008576 1.225047 10.978222 2.718110 -2.003103 4.670510 -0.291974 1.741176 5.260352 4.147110 0.000001 0.000002 -6.671247 -6.733780 -105.101387 -0.000001 -0.000002 -10.254790 75.106789 -1.879318 0.457813 -0.000001 0.000008 -12.664398 251.108845 179.191516 -146.235907 -2.489497 -2.085300 4.979701 -2.193145 1.792901 21.661195 -4.160396 0.000005 0.000002 3.182890 -18.356994 102.915289 -0.000003 -0.000000 -10.253995 -53.817806 -2.765278 -3.775637 -0.000000 0.000007 -12.768698 -69.990629 -15.427579 334.440021 2.212401 -0.073603 -2.641502 162.094131 -3.543261 72.256612 -0.000009 -0.000002 -17.950607 -189.883862 3.820328 112.442023 0.000005 0.000010 -19.053907 56.713263 -7.127314 57.817148 -2.162806 -0.306098 -2.581299 -6.056640 -13.399222 -0.902946 -0.000011 -0.000004 -18.327101 -25.770883 38.811286 -3.967823 0.000002 -0.000002 -18.423401 18.087456 7.158879 8.455533 
-46.167000 33.880493 43.728912 -7.137211 3.572845 4.123959 -0.076000 1.394601 8.347798 6.123874 -3.583571 4.530368 0.000005 0.000002 3.321604 -10.187170 -2.843115 -0.798020 0.000002 -0.000008 7.732100 63.120182 -2.457184 -0.873253 0.000000 -0.000004 2.173893 11.012557 0.770708 10.196218 2.718103 -2.003103 4.670503 -0.270221 1.121262 5.467462 4.147107 0.000002 0.000003 -5.251402 -4.413105 -103.547874 0.000000 0.000002 -10.254792 74.326112 -1.523687 -0.067208 -0.000001 0.000006 -12.664402 255.187479 177.495675 -145.716895 -2.489495 -2.085302 4.979695 0.370580 3.951829 21.735088 -4.160407 0.000004 -0.000004 -3.501544 -15.966247 100.355177 -0.000001 0.000001 -10.254002 -50.769185 -3.078265 -4.181849 0.000002 -0.000000 -12.768706 -74.443352 -14.949503 334.612415 2.212402 -0.073601 -2.641500 161.907435 -2.970421 72.134570 -0.000010 -0.000002 -17.950605 -190.603095 3.737683 113.533132 -0.000003 0.000008 -19.053905 56.036351 -6.509005 57.955234 -2.162798 -0.306100 -2.581294 -5.017279 -13.426123 -0.365286 -0.000001 -0.000009 -18.327093 -25.401330 38.734819 -5.147567 0.000001 0.000002 -18.423399 18.805167 6.230325 5.996084 
-46.428596 34.121788 43.692108 -6.843854 2.947964 4.213171 -0.076000 1.394597 8.347807 5.806658 -2.785024 4.916396 0.000004 -0.000006 3.321599 -10.682833 -3.200517 -0.890297 -0.000000 -0.000000 7.732100 64.491302 -4.494152 -1.587734 0.000002 0.000002 2.173902 10.273713 0.819255 10.334889 2.718108 -2.003096 4.670507 0.115743 1.634907 5.620665 4.147099 0.000002 0.000002 -4.692120 -3.329740 -103.535006 -0.000001 0.000003 -10.254795 69.952871 -0.695891 -0.679095 0.000002 0.000002 -12.664393 258.838952 176.829185 -148.363457 -2.489503 -2.085300 4.979700 2.593375 6.879784 18.574508 -4.160399 0.000002 -0.000001 -5.996413 -18.029015 100.481413 -0.000002 0.000001 -10.253995 -45.835822 -3.184708 -3.723913 0.000004 0.000008 -12.768700 -79.578254 -15.530481 335.072142 2.212404 -0.073599 -2.641492 161.095080 -3.953273 71.748453 -0.000014 0.000000 -17.950617 -190.193530 3.285170 113.387731 0.000003 0.000006 -19.053900 55.818591 -5.190870 59.367191 -2.162803 -0.306098 -2.581290 -6.264976 -13.005797 -0.946648 -0.000005 -0.000003 -18.327101 -28.375148 38.549820 -3.183694 0.000002 -0.000000 -18.423403 21.129959 7.642213 9.342707 
